<svg id="app_store" xmlns="http://www.w3.org/2000/svg" width="31.389" height="38.269" viewBox="0 0 31.389 38.269">
  <g id="apple" transform="translate(0 0)">
    <path id="Path_157" data-name="Path 157" d="M56.429,147.41c-5.7-.033-10.407-11.659-10.407-17.58,0-9.672,7.256-11.79,10.052-11.79a11.567,11.567,0,0,1,3.793.933,8.478,8.478,0,0,0,2.166.621,6.739,6.739,0,0,0,1.554-.5,12.452,12.452,0,0,1,4.683-1.132h.011a9.6,9.6,0,0,1,8.032,4.056l.586.88-.843.636a7.094,7.094,0,0,0-3.4,5.85,6.6,6.6,0,0,0,3.684,6.1c.528.318,1.074.645,1.074,1.361,0,.468-3.731,10.506-9.15,10.506a7.359,7.359,0,0,1-3.09-.75,6.266,6.266,0,0,0-2.75-.662,7.074,7.074,0,0,0-2.178.589,10.666,10.666,0,0,1-3.777.881Z" transform="translate(-46.022 -109.141)" fill="#23233c"/>
    <path id="Path_158" data-name="Path 158" d="M262.344,0c.141,5.088-3.5,8.618-7.132,8.4C254.612,4.336,258.846,0,262.344,0Z" transform="translate(-239.523 0)" fill="#23233c"/>
  </g>
</svg>
