<svg xmlns="http://www.w3.org/2000/svg" width="42.29" height="42.281" viewBox="0 0 42.29 42.281">
  <path id="Icon_awesome-instagram" data-name="Icon awesome-instagram" d="M21.145,12.538a10.84,10.84,0,1,0,10.84,10.84A10.823,10.823,0,0,0,21.145,12.538Zm0,17.888a7.048,7.048,0,1,1,7.048-7.048,7.06,7.06,0,0,1-7.048,7.048ZM34.957,12.094a2.528,2.528,0,1,1-2.528-2.528A2.523,2.523,0,0,1,34.957,12.094Zm7.18,2.566c-.16-3.387-.934-6.387-3.415-8.859s-5.472-3.246-8.859-3.415c-3.491-.2-13.954-.2-17.444,0-3.378.16-6.378.934-8.859,3.406S.313,11.264.143,14.651c-.2,3.491-.2,13.954,0,17.445.16,3.387.934,6.387,3.415,8.859S9.031,44.2,12.418,44.37c3.491.2,13.954.2,17.444,0,3.387-.16,6.387-.934,8.859-3.415s3.245-5.472,3.415-8.859c.2-3.491.2-13.944,0-17.435Zm-4.51,21.181a7.135,7.135,0,0,1-4.019,4.019c-2.783,1.1-9.387.849-12.463.849s-9.689.245-12.463-.849a7.135,7.135,0,0,1-4.019-4.019c-1.1-2.783-.849-9.387-.849-12.463s-.245-9.689.849-12.463A7.135,7.135,0,0,1,8.682,6.9c2.783-1.1,9.387-.849,12.463-.849S30.834,5.8,33.608,6.9a7.135,7.135,0,0,1,4.019,4.019c1.1,2.783.849,9.387.849,12.463S38.731,33.068,37.627,35.841Z" transform="translate(0.005 -2.238)" fill="#929fc7"/>
</svg>
